<svg width="24" height="23" viewBox="0 0 24 23" fill="none" xmlns="http://www.w3.org/2000/svg">
<path d="M17 1.5H7C4.23858 1.5 2 3.73858 2 6.5V16.5C2 19.2614 4.23858 21.5 7 21.5H17C19.7614 21.5 22 19.2614 22 16.5V6.5C22 3.73858 19.7614 1.5 17 1.5Z" stroke="black" stroke-width="3" stroke-linecap="round" stroke-linejoin="round"/>
<path d="M16 10.8698C16.1234 11.7021 15.9812 12.552 15.5937 13.2988C15.2062 14.0456 14.5931 14.6512 13.8416 15.0295C13.0901 15.4077 12.2384 15.5394 11.4077 15.4057C10.5771 15.2721 9.80971 14.8799 9.21479 14.285C8.61987 13.6901 8.22768 12.9227 8.09402 12.092C7.96035 11.2614 8.09202 10.4097 8.47028 9.65819C8.84854 8.90667 9.45414 8.29355 10.2009 7.90605C10.9477 7.51856 11.7977 7.3764 12.63 7.49981C13.4789 7.6257 14.2648 8.02128 14.8716 8.62812C15.4785 9.23496 15.8741 10.0209 16 10.8698Z" stroke="black" stroke-width="3" stroke-linecap="round" stroke-linejoin="round"/>
<path d="M17.5 6H17.51" stroke="black" stroke-width="3" stroke-linecap="round" stroke-linejoin="round"/>
</svg>
